<?xml version="1.0" standalone="no"?>
<!DOCTYPE svg PUBLIC "-//W3C//DTD SVG 20010904//EN"
 "http://www.w3.org/TR/2001/REC-SVG-20010904/DTD/svg10.dtd">
<svg version="1.0" xmlns="http://www.w3.org/2000/svg"
 width="500.000000pt" height="500.000000pt" viewBox="0 0 500.000000 500.000000"
 preserveAspectRatio="xMidYMid meet">
<metadata>
Created by potrace 1.11, written by Peter Selinger 2001-2013
</metadata>
<g transform="translate(0.000000,500.000000) scale(0.100000,-0.100000)"
fill="#000000" stroke="none">
<path d="M0 2500 l0 -2500 2500 0 2500 0 0 2500 0 2500 -2500 0 -2500 0 0
-2500z m2371 1729 c268 -27 522 -114 715 -244 68 -47 134 -103 134 -115 0 -13
-194 -366 -219 -399 -32 -42 -92 -70 -148 -71 -34 0 -73 16 -187 75 -79 41
-186 89 -237 107 -87 29 -104 32 -224 32 -147 1 -218 -15 -297 -66 -124 -78
-176 -258 -112 -386 54 -109 154 -163 544 -292 287 -95 476 -177 584 -254 150
-107 272 -281 317 -453 26 -100 36 -298 20 -416 -65 -483 -389 -823 -891 -933
-69 -16 -127 -19 -310 -19 -196 1 -239 4 -330 24 -302 65 -611 209 -783 363
l-48 43 122 195 c67 107 129 203 138 214 30 34 88 56 146 56 68 0 97 -12 222
-89 124 -76 270 -145 350 -165 141 -37 317 -30 440 16 80 29 156 103 184 177
30 79 36 192 15 266 -14 47 -29 69 -76 117 -71 70 -167 118 -345 173 -564 171
-682 227 -841 398 -87 93 -155 220 -191 354 -23 86 -26 119 -27 268 -1 187 9
244 65 384 88 220 264 404 497 520 218 109 482 150 773 120z m1614 -2655 c217
-56 345 -271 291 -484 -78 -304 -479 -404 -697 -173 -68 72 -100 144 -106 242
-20 281 236 488 512 415z"/>
</g>
</svg>
